<?xml version="1.0" encoding="UTF-8" standalone="no"?><!DOCTYPE svg PUBLIC "-//W3C//DTD SVG 1.1//EN" "http://www.w3.org/Graphics/SVG/1.1/DTD/svg11.dtd"><svg width="100%" height="100%" viewBox="0 0 72 72" version="1.1" xmlns="http://www.w3.org/2000/svg" xmlns:xlink="http://www.w3.org/1999/xlink" xml:space="preserve" xmlns:serif="http://www.serif.com/" style="fill-rule:evenodd;clip-rule:evenodd;stroke-linejoin:round;stroke-miterlimit:1.41421;"><text x="29.154px" y="36px" style="font-family:'ArialMT', 'Arial', sans-serif;font-size:16.407px;fill:#0077db;">m</text><rect x="19.757" y="37.313" width="32.485" height="5.533" style="fill:#0077db;"/><path d="M36,6.96c16.028,0 29.04,13.012 29.04,29.04c0,16.028 -13.012,29.04 -29.04,29.04c-16.028,0 -29.04,-13.012 -29.04,-29.04c0,-16.028 13.012,-29.04 29.04,-29.04Zm0,7.26c12.021,0 21.78,9.759 21.78,21.78c0,12.021 -9.759,21.78 -21.78,21.78c-12.021,0 -21.78,-9.759 -21.78,-21.78c0,-12.021 9.759,-21.78 21.78,-21.78Z" style="fill:#0077db;"/></svg>