<?xml version="1.0" encoding="UTF-8" standalone="no"?><!DOCTYPE svg PUBLIC "-//W3C//DTD SVG 1.1//EN" "http://www.w3.org/Graphics/SVG/1.1/DTD/svg11.dtd"><svg width="100%" height="100%" viewBox="0 0 10 10" version="1.1" xmlns="http://www.w3.org/2000/svg" xmlns:xlink="http://www.w3.org/1999/xlink" xml:space="preserve" xmlns:serif="http://www.serif.com/" style="fill-rule:evenodd;clip-rule:evenodd;stroke-linejoin:round;stroke-miterlimit:1.41421;"><text x="3.838px" y="4.8px" style="font-family:'ArialMT', 'Arial', sans-serif;font-size:2.305px;fill:#0077db;">m</text><rect x="2.518" y="4.984" width="4.564" height="0.777" style="fill:#0077db;"/><path d="M4.8,0.72c2.252,0 4.08,1.828 4.08,4.08c0,2.252 -1.828,4.08 -4.08,4.08c-2.252,0 -4.08,-1.828 -4.08,-4.08c0,-2.252 1.828,-4.08 4.08,-4.08Zm0,1.02c1.689,0 3.06,1.371 3.06,3.06c0,1.689 -1.371,3.06 -3.06,3.06c-1.689,0 -3.06,-1.371 -3.06,-3.06c0,-1.689 1.371,-3.06 3.06,-3.06Z" style="fill:#0077db;"/></svg>